<?xml version="1.0" standalone="no"?><!DOCTYPE svg PUBLIC "-//W3C//DTD SVG 1.1//EN" "http://www.w3.org/Graphics/SVG/1.1/DTD/svg11.dtd"><svg t="1660012079002" class="icon" viewBox="0 0 1024 1024" version="1.1" xmlns="http://www.w3.org/2000/svg" p-id="2320" xmlns:xlink="http://www.w3.org/1999/xlink" width="200" height="200"><defs><style type="text/css">@font-face { font-family: element-icons; src: url("chrome-extension://moombeodfomdpjnpocobemoiaemednkg/fonts/element-icons.woff") format("woff"), url("chrome-extension://moombeodfomdpjnpocobemoiaemednkg/fonts/element-icons.ttf ") format("truetype"); }
@font-face { font-family: feedback-iconfont; src: url("//at.alicdn.com/t/font_1031158_u69w8yhxdu.woff2?t=1630033759944") format("woff2"), url("//at.alicdn.com/t/font_1031158_u69w8yhxdu.woff?t=1630033759944") format("woff"), url("//at.alicdn.com/t/font_1031158_u69w8yhxdu.ttf?t=1630033759944") format("truetype"); }
</style></defs><path d="M741.6 353.6m-214.4 0a214.4 214.4 0 1 0 428.8 0 214.4 214.4 0 1 0-428.8 0Z" fill="#FFCE54" p-id="2321"></path><path d="M384.8 520m-285.6 0a285.6 285.6 0 1 0 571.2 0 285.6 285.6 0 1 0-571.2 0Z" fill="#FFFFFF" p-id="2322"></path><path d="M718.4 591.2m-214.4 0a214.4 214.4 0 1 0 428.8 0 214.4 214.4 0 1 0-428.8 0Z" fill="#FFFFFF" p-id="2323"></path><path d="M361.6 591.2m-285.6 0a285.6 285.6 0 1 0 571.2 0 285.6 285.6 0 1 0-571.2 0Z" fill="#D8EFFC" p-id="2324"></path><path d="M694.4 662.4m-214.4 0a214.4 214.4 0 1 0 428.8 0 214.4 214.4 0 1 0-428.8 0Z" fill="#D8EFFC" p-id="2325"></path><path d="M673.6 876.8H382.4c-24.8 0-44.8-20-44.8-44.8v-5.6c0-24.8 20-44.8 44.8-44.8h291.2c24.8 0 44.8 20 44.8 44.8v5.6c0 24.8-20.8 44.8-44.8 44.8z" fill="#D8EFFC" p-id="2326"></path></svg>