<?xml version="1.0" standalone="no"?><!DOCTYPE svg PUBLIC "-//W3C//DTD SVG 1.1//EN" "http://www.w3.org/Graphics/SVG/1.1/DTD/svg11.dtd"><svg t="1660012123780" class="icon" viewBox="0 0 1024 1024" version="1.1" xmlns="http://www.w3.org/2000/svg" p-id="4448" xmlns:xlink="http://www.w3.org/1999/xlink" width="200" height="200"><defs><style type="text/css">@font-face { font-family: element-icons; src: url("chrome-extension://moombeodfomdpjnpocobemoiaemednkg/fonts/element-icons.woff") format("woff"), url("chrome-extension://moombeodfomdpjnpocobemoiaemednkg/fonts/element-icons.ttf ") format("truetype"); }
@font-face { font-family: feedback-iconfont; src: url("//at.alicdn.com/t/font_1031158_u69w8yhxdu.woff2?t=1630033759944") format("woff2"), url("//at.alicdn.com/t/font_1031158_u69w8yhxdu.woff?t=1630033759944") format("woff"), url("//at.alicdn.com/t/font_1031158_u69w8yhxdu.ttf?t=1630033759944") format("truetype"); }
</style></defs><path d="M531.2 872h-80c-21.6 0-40-18.4-40-40s17.6-40 40-40h80c22.4 0 40 18.4 40 40 0 22.4-17.6 40-40 40zM667.2 712h-240c-21.6 0-40-18.4-40-40s17.6-40 40-40h240c22.4 0 40 18.4 40 40 0 22.4-17.6 40-40 40zM771.2 552h-400c-21.6 0-40-18.4-40-40 0-22.4 17.6-40 40-40h400c22.4 0 40 17.6 40 40s-17.6 40-40 40zM867.2 232h-720c-21.6 0-40-17.6-40-40 0-21.6 17.6-40 40-40h720c22.4 0 40 17.6 40 40s-17.6 40-40 40zM823.2 392h-560c-21.6 0-40-17.6-40-40s17.6-40 40-40h560c21.6 0 40 17.6 40 40s-18.4 40-40 40z" fill="#86C3E1" p-id="4449"></path></svg>