<?xml version="1.0" standalone="no"?><!DOCTYPE svg PUBLIC "-//W3C//DTD SVG 1.1//EN" "http://www.w3.org/Graphics/SVG/1.1/DTD/svg11.dtd"><svg t="1660012126913" class="icon" viewBox="0 0 1024 1024" version="1.1" xmlns="http://www.w3.org/2000/svg" p-id="4590" xmlns:xlink="http://www.w3.org/1999/xlink" width="200" height="200"><defs><style type="text/css">@font-face { font-family: element-icons; src: url("chrome-extension://moombeodfomdpjnpocobemoiaemednkg/fonts/element-icons.woff") format("woff"), url("chrome-extension://moombeodfomdpjnpocobemoiaemednkg/fonts/element-icons.ttf ") format("truetype"); }
@font-face { font-family: feedback-iconfont; src: url("//at.alicdn.com/t/font_1031158_u69w8yhxdu.woff2?t=1630033759944") format("woff2"), url("//at.alicdn.com/t/font_1031158_u69w8yhxdu.woff?t=1630033759944") format("woff"), url("//at.alicdn.com/t/font_1031158_u69w8yhxdu.ttf?t=1630033759944") format("truetype"); }
</style></defs><path d="M628 218.4m-40 0a40 40 0 1 0 80 0 40 40 0 1 0-80 0Z" fill="#86C3E1" p-id="4591"></path><path d="M776.8 317.6m-40 0a40 40 0 1 0 80 0 40 40 0 1 0-80 0Z" fill="#86C3E1" p-id="4592"></path><path d="M776.8 516m-40 0a40 40 0 1 0 80 0 40 40 0 1 0-80 0Z" fill="#86C3E1" p-id="4593"></path><path d="M900.8 416.8m-40 0a40 40 0 1 0 80 0 40 40 0 1 0-80 0Z" fill="#86C3E1" p-id="4594"></path><path d="M900.8 615.2m-40 0a40 40 0 1 0 80 0 40 40 0 1 0-80 0Z" fill="#86C3E1" p-id="4595"></path><path d="M776.8 714.4m-40 0a40 40 0 1 0 80 0 40 40 0 1 0-80 0Z" fill="#86C3E1" p-id="4596"></path><path d="M628 416.8m-40 0a40 40 0 1 0 80 0 40 40 0 1 0-80 0Z" fill="#86C3E1" p-id="4597"></path><path d="M628 615.2m-40 0a40 40 0 1 0 80 0 40 40 0 1 0-80 0Z" fill="#86C3E1" p-id="4598"></path><path d="M628 813.6m-40 0a40 40 0 1 0 80 0 40 40 0 1 0-80 0Z" fill="#86C3E1" p-id="4599"></path><path d="M356 539.2H124.8c-21.6 0-40 18.4-40 40s18.4 40 40 40h231.2c43.2 0 76.8 33.6 76.8 76.8 0 43.2-33.6 76.8-76.8 76.8h-43.2c-21.6 0-40 18.4-40 40s18.4 40 40 40h43.2c86.4 0 154.4-71.2 154.4-154.4s-71.2-159.2-154.4-159.2zM509.6 331.2c0-83.2-68-154.4-154.4-154.4H312c-21.6 0-40 18.4-40 40s18.4 40 40 40h43.2c43.2 0 76.8 33.6 76.8 76.8s-33.6 76.8-76.8 76.8H124.8c-21.6 0-40 18.4-40 40s18.4 40 40 40h231.2c83.2 0.8 153.6-76 153.6-159.2z" fill="#86C3E1" p-id="4600"></path></svg>