<?xml version="1.0" standalone="no"?><!DOCTYPE svg PUBLIC "-//W3C//DTD SVG 1.1//EN" "http://www.w3.org/Graphics/SVG/1.1/DTD/svg11.dtd"><svg t="1660012139813" class="icon" viewBox="0 0 1024 1024" version="1.1" xmlns="http://www.w3.org/2000/svg" p-id="5189" xmlns:xlink="http://www.w3.org/1999/xlink" width="200" height="200"><defs><style type="text/css">@font-face { font-family: element-icons; src: url("chrome-extension://moombeodfomdpjnpocobemoiaemednkg/fonts/element-icons.woff") format("woff"), url("chrome-extension://moombeodfomdpjnpocobemoiaemednkg/fonts/element-icons.ttf ") format("truetype"); }
@font-face { font-family: feedback-iconfont; src: url("//at.alicdn.com/t/font_1031158_u69w8yhxdu.woff2?t=1630033759944") format("woff2"), url("//at.alicdn.com/t/font_1031158_u69w8yhxdu.woff?t=1630033759944") format("woff"), url("//at.alicdn.com/t/font_1031158_u69w8yhxdu.ttf?t=1630033759944") format("truetype"); }
</style></defs><path d="M518.4 767.2c-136 0-247.2-112-247.2-248.8s111.2-248.8 247.2-248.8 247.2 112 247.2 248.8-110.4 248.8-247.2 248.8z m0-432c-100.8 0-181.6 81.6-181.6 183.2s80.8 183.2 181.6 183.2 181.6-81.6 181.6-183.2-80.8-183.2-181.6-183.2z" fill="#86C3E1" p-id="5190"></path><path d="M518.4 899.2c-209.6 0-379.2-170.4-379.2-380.8s169.6-380.8 379.2-380.8 379.2 170.4 379.2 380.8-169.6 380.8-379.2 380.8z m0-685.6c-166.4 0-303.2 136.8-303.2 304.8s136 304.8 303.2 304.8 303.2-136.8 303.2-304.8-136.8-304.8-303.2-304.8z" fill="#86C3E1" p-id="5191"></path><path d="M167.2 899.2c-17.6 0-30.4-2.4-32.8-2.4-17.6-4.8-28-20-25.6-38.4 4.8-17.6 20-28 37.6-25.6 7.2 2.4 202.4 35.2 340.8-335.2 164-428.8 386.4-378.4 393.6-376 17.6 4.8 28 23.2 22.4 38.4-4.8 17.6-20 28-37.6 23.2-2.4 0-179.2-32.8-316 335.2-124.8 342.4-306.4 380.8-382.4 380.8z" fill="#86C3E1" p-id="5192"></path><path d="M874.4 896.8c-12.8 0-25.6-8-30.4-23.2 0-2.4-98.4-287.2-328-335.2C248 488 119.2 177.6 112 165.6c-4.8-15.2 2.4-35.2 17.6-43.2 15.2-8 35.2 0 43.2 17.6 0 2.4 124 289.6 356 335.2 268 53.6 373.6 363.2 379.2 376 4.8 17.6-2.4 35.2-20 40.8-5.6 4.8-8 4.8-13.6 4.8z" fill="#86C3E1" p-id="5193"></path></svg>