<?xml version="1.0" standalone="no"?><!DOCTYPE svg PUBLIC "-//W3C//DTD SVG 1.1//EN" "http://www.w3.org/Graphics/SVG/1.1/DTD/svg11.dtd"><svg t="1660012081876" class="icon" viewBox="0 0 1024 1024" version="1.1" xmlns="http://www.w3.org/2000/svg" p-id="2469" xmlns:xlink="http://www.w3.org/1999/xlink" width="200" height="200"><defs><style type="text/css">@font-face { font-family: element-icons; src: url("chrome-extension://moombeodfomdpjnpocobemoiaemednkg/fonts/element-icons.woff") format("woff"), url("chrome-extension://moombeodfomdpjnpocobemoiaemednkg/fonts/element-icons.ttf ") format("truetype"); }
@font-face { font-family: feedback-iconfont; src: url("//at.alicdn.com/t/font_1031158_u69w8yhxdu.woff2?t=1630033759944") format("woff2"), url("//at.alicdn.com/t/font_1031158_u69w8yhxdu.woff?t=1630033759944") format("woff"), url("//at.alicdn.com/t/font_1031158_u69w8yhxdu.ttf?t=1630033759944") format("truetype"); }
</style></defs><path d="M373.6 452m-301.6 0a301.6 301.6 0 1 0 603.2 0 301.6 301.6 0 1 0-603.2 0Z" fill="#D8EFFC" p-id="2470"></path><path d="M725.6 527.2m-226.4 0a226.4 226.4 0 1 0 452.8 0 226.4 226.4 0 1 0-452.8 0Z" fill="#D8EFFC" p-id="2471"></path><path d="M703.2 753.6H396c-24.8 0-48-20-48-48v-4.8c0-24.8 20-48 48-48h306.4c24.8 0 48 20 48 48v4.8c0.8 28-20 48-47.2 48z" fill="#D8EFFC" p-id="2472"></path><path d="M612 863.2c-7.2 0-17.6-2.4-24.8-8-12-8-20-17.6-22.4-30.4-2.4-12.8-2.4-28 4.8-38.4l36.8-66.4c9.6-15.2 24.8-25.6 41.6-25.6 7.2 0 17.6 2.4 24.8 8 12 8 20 17.6 22.4 30.4 2.4 12.8 2.4 28-4.8 38.4l-34.4 66.4c-9.6 15.2-24 25.6-44 25.6z" fill="#128CC6" p-id="2473"></path><path d="M652 707.2c7.2 0 12 2.4 17.6 4.8 17.6 10.4 24.8 33.6 12 51.2l-36.8 66.4c-7.2 12.8-20 17.6-32 17.6-7.2 0-12-2.4-17.6-4.8-17.6-10.4-24.8-33.6-12-51.2l36.8-66.4c4.8-9.6 16.8-17.6 32-17.6m0-25.6c-22.4 0-41.6 12.8-54.4 30.4l-36.8 66.4c-7.2 15.2-9.6 33.6-4.8 48.8s14.4 30.4 29.6 38.4c9.6 4.8 20 8 29.6 8 22.4 0 41.6-12.8 54.4-30.4l36.8-66.4c7.2-15.2 9.6-33.6 4.8-48.8s-14.4-30.4-29.6-38.4c-10.4-5.6-20-8-29.6-8z" fill="#F9FAFC" p-id="2474"></path><path d="M369.6 863.2c-7.2 0-17.6-2.4-24.8-8-12-8-20-17.6-22.4-30.4-2.4-12.8-2.4-28 4.8-38.4l36.8-66.4c9.6-15.2 24.8-25.6 41.6-25.6 7.2 0 17.6 2.4 24.8 8 12 8 20 17.6 22.4 30.4s2.4 28-4.8 38.4l-34.4 66.4c-9.6 15.2-24 25.6-44 25.6z" fill="#128CC6" p-id="2475"></path><path d="M409.6 707.2c7.2 0 12 2.4 17.6 4.8 17.6 10.4 24.8 33.6 12 51.2l-36.8 66.4c-7.2 12.8-20 17.6-32 17.6-7.2 0-12-2.4-17.6-4.8-17.6-10.4-24.8-33.6-12-51.2l36.8-66.4c4.8-9.6 16.8-17.6 32-17.6m0-25.6c-22.4 0-41.6 12.8-54.4 30.4l-36.8 66.4c-7.2 15.2-9.6 33.6-4.8 48.8 4.8 15.2 14.4 30.4 29.6 38.4 9.6 4.8 20 8 29.6 8 22.4 0 41.6-12.8 54.4-30.4l36.8-66.4c7.2-15.2 9.6-33.6 4.8-48.8-4.8-15.2-14.4-30.4-29.6-38.4-10.4-5.6-20-8-29.6-8z" fill="#F9FAFC" p-id="2476"></path></svg>