<?xml version="1.0" standalone="no"?><!DOCTYPE svg PUBLIC "-//W3C//DTD SVG 1.1//EN" "http://www.w3.org/Graphics/SVG/1.1/DTD/svg11.dtd"><svg t="1660012136405" class="icon" viewBox="0 0 1024 1024" version="1.1" xmlns="http://www.w3.org/2000/svg" p-id="5036" xmlns:xlink="http://www.w3.org/1999/xlink" width="200" height="200"><defs><style type="text/css">@font-face { font-family: element-icons; src: url("chrome-extension://moombeodfomdpjnpocobemoiaemednkg/fonts/element-icons.woff") format("woff"), url("chrome-extension://moombeodfomdpjnpocobemoiaemednkg/fonts/element-icons.ttf ") format("truetype"); }
@font-face { font-family: feedback-iconfont; src: url("//at.alicdn.com/t/font_1031158_u69w8yhxdu.woff2?t=1630033759944") format("woff2"), url("//at.alicdn.com/t/font_1031158_u69w8yhxdu.woff?t=1630033759944") format("woff"), url("//at.alicdn.com/t/font_1031158_u69w8yhxdu.ttf?t=1630033759944") format("truetype"); }
</style></defs><path d="M116 218.4m-40 0a40 40 0 1 0 80 0 40 40 0 1 0-80 0Z" fill="#86C3E1" p-id="5037"></path><path d="M248.8 351.2m-40 0a40 40 0 1 0 80 0 40 40 0 1 0-80 0Z" fill="#86C3E1" p-id="5038"></path><path d="M115.2 484m-40 0a40 40 0 1 0 80 0 40 40 0 1 0-80 0Z" fill="#86C3E1" p-id="5039"></path><path d="M381.6 218.4m-40 0a40 40 0 1 0 80 0 40 40 0 1 0-80 0Z" fill="#86C3E1" p-id="5040"></path><path d="M515.2 351.2m-40 0a40 40 0 1 0 80 0 40 40 0 1 0-80 0Z" fill="#86C3E1" p-id="5041"></path><path d="M381.6 484m-40 0a40 40 0 1 0 80 0 40 40 0 1 0-80 0Z" fill="#86C3E1" p-id="5042"></path><path d="M648 218.4m-40 0a40 40 0 1 0 80 0 40 40 0 1 0-80 0Z" fill="#86C3E1" p-id="5043"></path><path d="M914.4 218.4m-40 0a40 40 0 1 0 80 0 40 40 0 1 0-80 0Z" fill="#86C3E1" p-id="5044"></path><path d="M781.6 351.2m-40 0a40 40 0 1 0 80 0 40 40 0 1 0-80 0Z" fill="#86C3E1" p-id="5045"></path><path d="M648.8 484m-40 0a40 40 0 1 0 80 0 40 40 0 1 0-80 0Z" fill="#86C3E1" p-id="5046"></path><path d="M915.2 484m-40 0a40 40 0 1 0 80 0 40 40 0 1 0-80 0Z" fill="#86C3E1" p-id="5047"></path><path d="M515.2 844h-400c-21.6 0-40-18.4-40-40s17.6-40 40-40h400c21.6 0 40 18.4 40 40 0 22.4-18.4 40-40 40zM915.2 684h-800c-21.6 0-40-18.4-40-40s17.6-40 40-40h800c21.6 0 40 18.4 40 40 0 22.4-18.4 40-40 40zM915.2 844h-240c-21.6 0-40-18.4-40-40s18.4-40 40-40h240c21.6 0 40 18.4 40 40 0 22.4-18.4 40-40 40z" fill="#86C3E1" p-id="5048"></path></svg>