<?xml version="1.0" standalone="no"?><!DOCTYPE svg PUBLIC "-//W3C//DTD SVG 1.1//EN" "http://www.w3.org/Graphics/SVG/1.1/DTD/svg11.dtd"><svg t="1660012100307" class="icon" viewBox="0 0 1024 1024" version="1.1" xmlns="http://www.w3.org/2000/svg" p-id="3385" xmlns:xlink="http://www.w3.org/1999/xlink" width="200" height="200"><defs><style type="text/css">@font-face { font-family: element-icons; src: url("chrome-extension://moombeodfomdpjnpocobemoiaemednkg/fonts/element-icons.woff") format("woff"), url("chrome-extension://moombeodfomdpjnpocobemoiaemednkg/fonts/element-icons.ttf ") format("truetype"); }
@font-face { font-family: feedback-iconfont; src: url("//at.alicdn.com/t/font_1031158_u69w8yhxdu.woff2?t=1630033759944") format("woff2"), url("//at.alicdn.com/t/font_1031158_u69w8yhxdu.woff?t=1630033759944") format("woff"), url("//at.alicdn.com/t/font_1031158_u69w8yhxdu.ttf?t=1630033759944") format("truetype"); }
</style></defs><path d="M369.6 454.4m-301.6 0a301.6 301.6 0 1 0 603.2 0 301.6 301.6 0 1 0-603.2 0Z" fill="#D8EFFC" p-id="3386"></path><path d="M721.6 529.6m-226.4 0a226.4 226.4 0 1 0 452.8 0 226.4 226.4 0 1 0-452.8 0Z" fill="#D8EFFC" p-id="3387"></path><path d="M699.2 756H392c-24.8 0-48-20-48-48v-4.8c0-24.8 20-48 48-48h306.4c24.8 0 48 20 48 48v4.8c0.8 27.2-20 48-47.2 48z" fill="#D8EFFC" p-id="3388"></path><path d="M656 864.8c-17.6 0-30.4-12.8-30.4-30.4-4.8 2.4-10.4 4.8-15.2 4.8-10.4 0-20-4.8-24.8-15.2-4.8-7.2-4.8-15.2-2.4-22.4 2.4-7.2 7.2-15.2 12.8-17.6-7.2-4.8-12.8-10.4-12.8-17.6-2.4-7.2 0-15.2 2.4-22.4 4.8-10.4 15.2-15.2 24.8-15.2 4.8 0 10.4 2.4 15.2 4.8 0-17.6 12.8-30.4 30.4-30.4s30.4 12.8 30.4 30.4c4.8-2.4 10.4-4.8 15.2-4.8 10.4 0 20 4.8 24.8 15.2 4.8 7.2 4.8 15.2 2.4 22.4-2.4 7.2-7.2 15.2-12.8 17.6 7.2 4.8 12.8 10.4 12.8 17.6 2.4 7.2 0 15.2-2.4 22.4-4.8 10.4-15.2 15.2-24.8 15.2-4.8 0-10.4-2.4-15.2-4.8 0 17.6-12.8 30.4-30.4 30.4z" fill="#128CC6" p-id="3389"></path><path d="M656 716c10.4 0 17.6 7.2 17.6 17.6v22.4l17.6-10.4c2.4-2.4 4.8-2.4 7.2-2.4 4.8 0 12.8 2.4 15.2 7.2 4.8 7.2 2.4 17.6-4.8 22.4L691.2 784l17.6 10.4c7.2 4.8 10.4 15.2 4.8 22.4-2.4 4.8-10.4 7.2-15.2 7.2-2.4 0-4.8 0-7.2-2.4l-17.6-10.4v22.4c0 10.4-7.2 17.6-17.6 17.6-10.4 0-17.6-7.2-17.6-17.6v-22.4l-17.6 12.8c-2.4 2.4-4.8 2.4-7.2 2.4-4.8 0-12.8-2.4-15.2-7.2-4.8-7.2-2.4-17.6 4.8-22.4l17.6-10.4-17.6-10.4c-7.2-4.8-10.4-15.2-4.8-22.4 2.4-4.8 10.4-7.2 15.2-7.2 2.4 0 4.8 0 7.2 2.4l17.6 10.4V736c3.2-12 10.4-20 17.6-20m0-24.8c-17.6 0-32.8 10.4-40 24.8h-4.8c-15.2 0-30.4 7.2-37.6 20-7.2 15.2-7.2 32.8 2.4 48-10.4 12.8-12.8 32.8-2.4 48 7.2 12.8 22.4 20 37.6 20h4.8c7.2 15.2 22.4 24.8 40 24.8s32.8-10.4 40-24.8h4.8c15.2 0 30.4-7.2 37.6-20 4.8-10.4 7.2-20 4.8-32.8-2.4-4.8-4.8-10.4-7.2-15.2 2.4-4.8 4.8-10.4 7.2-15.2 2.4-10.4 2.4-22.4-4.8-32.8-7.2-12.8-22.4-20-37.6-20H696c-7.2-15.2-22.4-24.8-40-24.8z" fill="#F9FAFC" p-id="3390"></path><path d="M349.6 868c-7.2 0-17.6-2.4-24.8-7.2-12.8-7.2-20-17.6-22.4-30.4-2.4-12.8-2.4-28 4.8-37.6l37.6-65.6c10.4-15.2 24.8-24.8 42.4-24.8 7.2 0 17.6 2.4 24.8 7.2 12.8 7.2 20 17.6 22.4 30.4 2.4 12.8 2.4 28-4.8 37.6l-35.2 65.6c-9.6 15.2-24.8 24.8-44.8 24.8z" fill="#128CC6" p-id="3391"></path><path d="M389.6 715.2c7.2 0 12.8 2.4 17.6 4.8 17.6 10.4 24.8 32.8 12.8 50.4l-37.6 65.6c-7.2 12.8-20 17.6-32.8 17.6-7.2 0-12.8-2.4-17.6-4.8-17.6-10.4-24.8-32.8-12.8-50.4l37.6-65.6c5.6-10.4 17.6-17.6 32.8-17.6m0-25.6c-22.4 0-42.4 12.8-55.2 30.4l-37.6 65.6c-7.2 15.2-10.4 32.8-4.8 48 4.8 15.2 15.2 30.4 30.4 37.6 10.4 4.8 20 7.2 30.4 7.2 22.4 0 42.4-12.8 55.2-30.4l37.6-65.6c7.2-15.2 10.4-32.8 4.8-48-4.8-15.2-15.2-30.4-30.4-37.6-10.4-4.8-20-7.2-30.4-7.2z" fill="#F9FAFC" p-id="3392"></path></svg>