<?xml version="1.0" standalone="no"?><!DOCTYPE svg PUBLIC "-//W3C//DTD SVG 1.1//EN" "http://www.w3.org/Graphics/SVG/1.1/DTD/svg11.dtd"><svg t="1660012120698" class="icon" viewBox="0 0 1024 1024" version="1.1" xmlns="http://www.w3.org/2000/svg" p-id="4295" xmlns:xlink="http://www.w3.org/1999/xlink" width="200" height="200"><defs><style type="text/css">@font-face { font-family: element-icons; src: url("chrome-extension://moombeodfomdpjnpocobemoiaemednkg/fonts/element-icons.woff") format("woff"), url("chrome-extension://moombeodfomdpjnpocobemoiaemednkg/fonts/element-icons.ttf ") format("truetype"); }
@font-face { font-family: feedback-iconfont; src: url("//at.alicdn.com/t/font_1031158_u69w8yhxdu.woff2?t=1630033759944") format("woff2"), url("//at.alicdn.com/t/font_1031158_u69w8yhxdu.woff?t=1630033759944") format("woff"), url("//at.alicdn.com/t/font_1031158_u69w8yhxdu.ttf?t=1630033759944") format("truetype"); }
</style></defs><path d="M737.6 300m-214.4 0a214.4 214.4 0 1 0 428.8 0 214.4 214.4 0 1 0-428.8 0Z" fill="#FFCE54" p-id="4296"></path><path d="M380.8 466.4m-285.6 0a285.6 285.6 0 1 0 571.2 0 285.6 285.6 0 1 0-571.2 0Z" fill="#FFFFFF" p-id="4297"></path><path d="M714.4 537.6m-214.4 0a214.4 214.4 0 1 0 428.8 0 214.4 214.4 0 1 0-428.8 0Z" fill="#FFFFFF" p-id="4298"></path><path d="M357.6 537.6m-285.6 0a285.6 285.6 0 1 0 571.2 0 285.6 285.6 0 1 0-571.2 0Z" fill="#D8EFFC" p-id="4299"></path><path d="M690.4 608.8m-214.4 0a214.4 214.4 0 1 0 428.8 0 214.4 214.4 0 1 0-428.8 0Z" fill="#D8EFFC" p-id="4300"></path><path d="M669.6 823.2H378.4c-24.8 0-44.8-20-44.8-44.8v-5.6c0-24.8 20-44.8 44.8-44.8h291.2c24.8 0 44.8 20 44.8 44.8v5.6c0 24.8-20.8 44.8-44.8 44.8z" fill="#D8EFFC" p-id="4301"></path><path d="M600 933.6c-7.2 0-17.6-2.4-24.8-8-12-8-20-17.6-22.4-30.4-2.4-12.8-2.4-28 4.8-38.4l36.8-66.4c9.6-15.2 24.8-25.6 41.6-25.6 7.2 0 17.6 2.4 24.8 8 12 8 20 17.6 22.4 30.4 2.4 12.8 2.4 28-4.8 38.4l-34.4 66.4c-9.6 15.2-24 25.6-44 25.6z" fill="#128CC6" p-id="4302"></path><path d="M640 777.6c7.2 0 12 2.4 17.6 4.8 17.6 10.4 24.8 33.6 12 51.2l-36.8 66.4c-7.2 12.8-20 17.6-32 17.6-7.2 0-12-2.4-17.6-4.8-17.6-10.4-24.8-33.6-12-51.2l36.8-66.4c4.8-9.6 16.8-17.6 32-17.6m0-25.6c-22.4 0-41.6 12.8-54.4 30.4l-36.8 66.4c-7.2 15.2-9.6 33.6-4.8 48.8s14.4 30.4 29.6 38.4c9.6 4.8 20 8 29.6 8 22.4 0 41.6-12.8 54.4-30.4l36.8-66.4c7.2-15.2 9.6-33.6 4.8-48.8S684 768 669.6 760c-10.4-5.6-20-8-29.6-8z" fill="#F9FAFC" p-id="4303"></path><path d="M357.6 933.6c-7.2 0-17.6-2.4-24.8-8-12-8-20-17.6-22.4-30.4-2.4-12.8-2.4-28 4.8-38.4l36.8-66.4c9.6-15.2 24.8-25.6 41.6-25.6 7.2 0 17.6 2.4 24.8 8 12 8 20 17.6 22.4 30.4s2.4 28-4.8 38.4l-34.4 66.4c-9.6 15.2-24 25.6-44 25.6z" fill="#128CC6" p-id="4304"></path><path d="M397.6 777.6c7.2 0 12 2.4 17.6 4.8 17.6 10.4 24.8 33.6 12 51.2l-36.8 66.4c-7.2 12.8-20 17.6-32 17.6-7.2 0-12-2.4-17.6-4.8-17.6-10.4-24.8-33.6-12-51.2l36.8-66.4c4.8-9.6 16.8-17.6 32-17.6m0-25.6c-22.4 0-41.6 12.8-54.4 30.4l-36.8 66.4c-7.2 15.2-9.6 33.6-4.8 48.8 4.8 15.2 14.4 30.4 29.6 38.4 9.6 4.8 20 8 29.6 8 22.4 0 41.6-12.8 54.4-30.4l36.8-66.4c7.2-15.2 9.6-33.6 4.8-48.8-4.8-15.2-14.4-30.4-29.6-38.4-10.4-5.6-20-8-29.6-8z" fill="#F9FAFC" p-id="4305"></path></svg>