<?xml version="1.0" encoding="UTF-8"?>
<svg width="240px" height="240px" viewBox="0 0 240 240" version="1.1" xmlns="http://www.w3.org/2000/svg" xmlns:xlink="http://www.w3.org/1999/xlink">
    <title>goods</title>
    <g id="goods" stroke="none" stroke-width="1" fill="none" fill-rule="evenodd">
        <g id="goods-m" transform="translate(19.000000, 19.000000)" fill="#FBA414" fill-rule="nonzero">
            <path d="M180.479994,202 L22.5203157,202 C7.97056566,202 -1.92326441,187.27925 0.316131845,169.818875 L19.5850619,19.5813751 C21.2493764,8.45922612 30.7361967,0.173273463 42.004329,0 L161.097197,0 C172.366669,0.202662795 181.832728,8.51590086 183.465856,19.6445 L202.684178,169.818875 C204.923575,187.27925 195.017093,202 180.479994,202 Z M152.076352,25.2500001 C146.931567,25.2756549 142.314684,28.4075391 140.39819,33.1719368 C138.481696,37.9363345 139.647291,43.3843378 143.346502,46.9523751 C140.55668,68.1658746 122.890193,84.3087847 101.468525,85.21875 C80.0468572,84.3087847 62.3803705,68.1658746 59.5905488,46.9523751 C63.6260568,43.1407882 64.6969952,37.1478668 62.2305031,32.1793147 C59.764011,27.2107626 54.3374403,24.4296093 48.8535451,25.3235355 C43.36965,26.2174617 39.1120906,30.5772187 38.3582993,36.0707071 C37.6045081,41.5641955 40.5309312,46.9055095 45.5721808,49.2375001 C48.989087,77.8217001 72.6482596,99.7311458 101.468525,101 C130.288791,99.7311458 153.947964,77.8217001 157.36487,49.2375001 C162.63692,46.6918704 165.468917,40.8682738 164.210508,35.1604211 C162.952099,29.4525683 157.932277,25.3526912 152.076352,25.2500001 Z" id="形状"></path>
        </g>
    </g>
</svg>