<?xml version="1.0" encoding="UTF-8"?>
<svg width="240px" height="240px" viewBox="0 0 240 240" version="1.1" xmlns="http://www.w3.org/2000/svg" xmlns:xlink="http://www.w3.org/1999/xlink">
    <title>music</title>
    <g id="music" stroke="none" stroke-width="1" fill="none" fill-rule="evenodd">
        <g id="music-m" transform="translate(20.000000, 20.000000)" fill="#F1939C" fill-rule="nonzero">
            <path d="M176.699045,0 L23.3009554,0 C10.4321936,0 0,10.4321697 0,23.3011305 L0,176.699098 C0,189.56783 10.4321936,200 23.3009554,200 L176.699045,200 C189.567806,200 200,189.56783 200,176.699098 L200,23.3011305 C200,10.4321697 189.568035,0 176.699045,0 Z M147.478262,106.174864 C146.299138,109.163312 143.471202,113.696904 140.514029,116.449482 C137.256594,119.481086 135.730856,120.680301 132.553111,121.260957 C130.846531,121.573091 134.251471,117.453243 135.374653,116.223659 C139.800937,111.360351 141.742017,103.363375 141.174832,96.8713537 C140.273363,86.6378355 128.162447,72.6150978 119.544608,70.770151 L105.323643,128.570646 C101.819378,142.813955 99.9497664,148.491961 93.91737,153.816277 C79.2538909,166.759675 57.3345938,168.09612 51.2747973,151.406658 C50.1383714,148.27687 48.9240831,142.438344 51.2378068,137.690117 C58.3335615,123.097684 80.6848696,117.393647 95.7833279,129.340363 L118.681271,36.2721572 L125.892335,38.0463202 C122.670749,63.8335622 160.0664,74.2022546 147.478262,106.174864 Z" id="形状"></path>
        </g>
    </g>
</svg>