<?xml version="1.0" encoding="UTF-8"?>
<svg width="240px" height="240px" viewBox="0 0 240 240" version="1.1" xmlns="http://www.w3.org/2000/svg" xmlns:xlink="http://www.w3.org/1999/xlink">
    <title>video</title>
    <g id="video" stroke="none" stroke-width="1" fill="none" fill-rule="evenodd">
        <g id="video-m" transform="translate(20.000000, 20.000000)" fill="#1BA784" fill-rule="nonzero">
            <path d="M175,0 L25,0 C11.25,0 0,11.25 0,25 L0,175 C0,188.75 11.25,200 25,200 L175,200 C188.75,200 200,188.75 200,175 L200,25 C200,11.25 188.75,0 175,0 Z M146.25,110 L80,148.75 C72.5,152.5 62.5,147.5 62.5,138.75 L62.5,61.25 C62.5,52.5 72.5,46.25 80,51.25 L146.25,90 C153.75,93.75 153.75,106.25 146.25,110 Z" id="形状"></path>
        </g>
    </g>
</svg>