<?xml version="1.0" standalone="no"?><!DOCTYPE svg PUBLIC "-//W3C//DTD SVG 1.1//EN" "http://www.w3.org/Graphics/SVG/1.1/DTD/svg11.dtd"><svg t="1660012113970" class="icon" viewBox="0 0 1024 1024" version="1.1" xmlns="http://www.w3.org/2000/svg" p-id="3995" xmlns:xlink="http://www.w3.org/1999/xlink" width="200" height="200"><defs><style type="text/css">@font-face { font-family: element-icons; src: url("chrome-extension://moombeodfomdpjnpocobemoiaemednkg/fonts/element-icons.woff") format("woff"), url("chrome-extension://moombeodfomdpjnpocobemoiaemednkg/fonts/element-icons.ttf ") format("truetype"); }
@font-face { font-family: feedback-iconfont; src: url("//at.alicdn.com/t/font_1031158_u69w8yhxdu.woff2?t=1630033759944") format("woff2"), url("//at.alicdn.com/t/font_1031158_u69w8yhxdu.woff?t=1630033759944") format("woff"), url("//at.alicdn.com/t/font_1031158_u69w8yhxdu.ttf?t=1630033759944") format("truetype"); }
</style></defs><path d="M377.6 420m-301.6 0a301.6 301.6 0 1 0 603.2 0 301.6 301.6 0 1 0-603.2 0Z" fill="#D8EFFC" p-id="3996"></path><path d="M729.6 495.2m-226.4 0a226.4 226.4 0 1 0 452.8 0 226.4 226.4 0 1 0-452.8 0Z" fill="#D8EFFC" p-id="3997"></path><path d="M707.2 721.6H400c-24.8 0-48-20-48-48v-4.8c0-24.8 20-48 48-48h306.4c24.8 0 48 20 48 48v4.8c0.8 28-20 48-47.2 48z" fill="#D8EFFC" p-id="3998"></path><path d="M320 784.8l-40 15.2c-2.4 0-4.8 2.4-4.8 7.2l-7.2 42.4c0 2.4 0 4.8 2.4 7.2l32.8 28c2.4 2.4 4.8 2.4 7.2 2.4l40-15.2c2.4 0 4.8-2.4 4.8-7.2l7.2-42.4c0-2.4 0-4.8-2.4-7.2l-32.8-28c-2.4-2.4-4.8-2.4-7.2-2.4zM722.4 784.8l-40 15.2c-2.4 0-4.8 2.4-4.8 7.2l-7.2 42.4c0 2.4 0 4.8 2.4 7.2l32.8 28c2.4 2.4 4.8 2.4 7.2 2.4l40-15.2c2.4 0 4.8-2.4 4.8-7.2l7.2-42.4c0-2.4 0-4.8-2.4-7.2l-32.8-28c-2.4-2.4-4.8-2.4-7.2-2.4zM520.8 772l-50.4 17.6c-2.4 0-4.8 4.8-7.2 7.2l-10.4 52.8c0 2.4 0 7.2 2.4 10.4l40 35.2c2.4 2.4 7.2 2.4 10.4 2.4l50.4-17.6c2.4 0 4.8-4.8 7.2-7.2l10.4-52.8c0-2.4 0-7.2-2.4-10.4l-40-35.2c-2.4-2.4-4.8-2.4-10.4-2.4z" fill="#128CC6" p-id="3999"></path></svg>