<?xml version="1.0" standalone="no"?><!DOCTYPE svg PUBLIC "-//W3C//DTD SVG 1.1//EN" "http://www.w3.org/Graphics/SVG/1.1/DTD/svg11.dtd"><svg t="1660012097423" class="icon" viewBox="0 0 1024 1024" version="1.1" xmlns="http://www.w3.org/2000/svg" p-id="3233" xmlns:xlink="http://www.w3.org/1999/xlink" width="200" height="200"><defs><style type="text/css">@font-face { font-family: element-icons; src: url("chrome-extension://moombeodfomdpjnpocobemoiaemednkg/fonts/element-icons.woff") format("woff"), url("chrome-extension://moombeodfomdpjnpocobemoiaemednkg/fonts/element-icons.ttf ") format("truetype"); }
@font-face { font-family: feedback-iconfont; src: url("//at.alicdn.com/t/font_1031158_u69w8yhxdu.woff2?t=1630033759944") format("woff2"), url("//at.alicdn.com/t/font_1031158_u69w8yhxdu.woff?t=1630033759944") format("woff"), url("//at.alicdn.com/t/font_1031158_u69w8yhxdu.ttf?t=1630033759944") format("truetype"); }
</style></defs><path d="M376.8 358.4m-301.6 0a301.6 301.6 0 1 0 603.2 0 301.6 301.6 0 1 0-603.2 0Z" fill="#D8EFFC" p-id="3234"></path><path d="M728.8 434.4m-226.4 0a226.4 226.4 0 1 0 452.8 0 226.4 226.4 0 1 0-452.8 0Z" fill="#D8EFFC" p-id="3235"></path><path d="M705.6 660H399.2c-24.8 0-48-20-48-48v-4.8c0-24.8 20-48 48-48h306.4c24.8 0 48 20 48 48v4.8c0 28-20 48-48 48z" fill="#D8EFFC" p-id="3236"></path><path d="M418.4 954.4c-10.4 0-20-4.8-28-15.2-7.2-10.4-7.2-24.8 0-35.2l70.4-125.6V776L368 695.2c-7.2-7.2-12.8-17.6-12.8-28S360 648 368 640l206.4-163.2c4.8-4.8 12.8-7.2 17.6-7.2 10.4 0 20 4.8 24.8 15.2 7.2 10.4 7.2 22.4 2.4 35.2l-55.2 138.4v2.4L634.4 744c4.8 7.2 10.4 17.6 7.2 28 0 10.4-4.8 17.6-12.8 22.4L436 944c-5.6 8-10.4 10.4-17.6 10.4z" fill="#128CC6" p-id="3237"></path><path d="M596.8 484c10.4 0 17.6 12.8 12.8 24.8l-60 143.2c-2.4 7.2-2.4 15.2 2.4 20l70.4 83.2c7.2 7.2 4.8 20-2.4 28l-193.6 151.2c-2.4 2.4-4.8 2.4-7.2 2.4-10.4 0-20-15.2-12.8-28l70.4-125.6c4.8-7.2 2.4-17.6-2.4-22.4l-93.6-80c-7.2-7.2-7.2-22.4 0-28l206.4-163.2c4.8-5.6 7.2-5.6 9.6-5.6m0-32c-10.4 0-20 2.4-28 10.4L363.2 624.8c-12.8 10.4-17.6 22.4-20 37.6 0 15.2 4.8 30.4 17.6 40L443.2 776l-65.6 116c-10.4 15.2-10.4 35.2 0 52.8 7.2 15.2 24.8 24.8 40 24.8 10.4 0 20-2.4 28-10.4L639.2 808c10.4-7.2 17.6-20 20-35.2 2.4-15.2-2.4-28-12.8-37.6l-65.6-75.2 57.6-136c7.2-17.6 4.8-35.2-4.8-50.4-6.4-14.4-21.6-21.6-36.8-21.6z" fill="#F9FAFC" p-id="3238"></path><path d="M750.4 900c-7.2 0-17.6-2.4-24.8-8-12-8-20-17.6-22.4-30.4s-2.4-28 4.8-38.4l36.8-66.4c9.6-15.2 24.8-25.6 41.6-25.6 7.2 0 17.6 2.4 24.8 8 12 8 20 17.6 22.4 30.4 2.4 12.8 2.4 28-4.8 38.4l-34.4 66.4c-9.6 15.2-24 25.6-44 25.6z" fill="#128CC6" p-id="3239"></path><path d="M790.4 744c7.2 0 12 2.4 17.6 4.8 17.6 10.4 24.8 33.6 12 51.2l-36.8 66.4c-7.2 12.8-20 17.6-32 17.6-7.2 0-12-2.4-17.6-4.8-17.6-10.4-24.8-33.6-12-51.2l36.8-66.4c4.8-9.6 16.8-17.6 32-17.6m0-26.4c-22.4 0-41.6 12.8-54.4 30.4l-36.8 66.4c-7.2 15.2-9.6 33.6-4.8 48.8s14.4 30.4 29.6 38.4c9.6 4.8 20 8 29.6 8 22.4 0 41.6-12.8 54.4-30.4l36.8-66.4c7.2-15.2 9.6-33.6 4.8-48.8s-14.4-30.4-29.6-38.4c-10.4-5.6-20-8-29.6-8z" fill="#F9FAFC" p-id="3240"></path><path d="M236 900c-7.2 0-17.6-2.4-24.8-8-12-8-20-17.6-22.4-30.4-2.4-12.8-2.4-28 4.8-38.4l36.8-66.4c9.6-15.2 24.8-25.6 41.6-25.6 7.2 0 17.6 2.4 24.8 8 12 8 20 17.6 22.4 30.4s2.4 28-4.8 38.4l-34.4 66.4c-9.6 15.2-24 25.6-44 25.6z" fill="#128CC6" p-id="3241"></path><path d="M276 744c7.2 0 12 2.4 17.6 4.8 17.6 10.4 24.8 33.6 12 51.2l-36.8 66.4c-7.2 12.8-20 17.6-32 17.6-7.2 0-12-2.4-17.6-4.8-17.6-10.4-24.8-33.6-12-51.2l36.8-66.4c4.8-9.6 16.8-17.6 32-17.6m0-25.6c-22.4 0-41.6 12.8-54.4 30.4l-36.8 66.4c-7.2 15.2-9.6 33.6-4.8 48.8s14.4 30.4 29.6 38.4c9.6 4.8 20 8 29.6 8 22.4 0 41.6-12.8 54.4-30.4l36.8-66.4c7.2-15.2 9.6-33.6 4.8-48.8-4.8-15.2-14.4-30.4-29.6-38.4-10.4-5.6-20-8-29.6-8z" fill="#F9FAFC" p-id="3242"></path></svg>