<?xml version="1.0" standalone="no"?><!DOCTYPE svg PUBLIC "-//W3C//DTD SVG 1.1//EN" "http://www.w3.org/Graphics/SVG/1.1/DTD/svg11.dtd"><svg t="1660012044950" class="icon" viewBox="0 0 1024 1024" version="1.1" xmlns="http://www.w3.org/2000/svg" p-id="2027" xmlns:xlink="http://www.w3.org/1999/xlink" width="200" height="200"><defs><style type="text/css">@font-face { font-family: element-icons; src: url("chrome-extension://moombeodfomdpjnpocobemoiaemednkg/fonts/element-icons.woff") format("woff"), url("chrome-extension://moombeodfomdpjnpocobemoiaemednkg/fonts/element-icons.ttf ") format("truetype"); }
@font-face { font-family: feedback-iconfont; src: url("//at.alicdn.com/t/font_1031158_u69w8yhxdu.woff2?t=1630033759944") format("woff2"), url("//at.alicdn.com/t/font_1031158_u69w8yhxdu.woff?t=1630033759944") format("woff"), url("//at.alicdn.com/t/font_1031158_u69w8yhxdu.ttf?t=1630033759944") format("truetype"); }
</style></defs><path d="M512 516m-268 0a268 268 0 1 0 536 0 268 268 0 1 0-536 0Z" fill="#FFCE54" p-id="2028"></path><path d="M512 139.2c-7.2 0-12.8-5.6-12.8-12v-40c0-6.4 5.6-12 12-12h0.8c6.4 0 12 5.6 12 12v40c0 7.2-5.6 12-12 12zM512 956c-7.2 0-12.8-5.6-12.8-12v-40c0-6.4 5.6-12 12-12h0.8c6.4 0 12 5.6 12 12v40c0 6.4-5.6 12-12 12zM779.2 250.4c-4.8-4.8-4.8-12.8 0-17.6l28-28c4.8-4.8 12.8-4.8 17.6 0 4.8 4.8 4.8 12.8 0 17.6l-28 28c-5.6 4.8-12.8 4.8-17.6 0zM201.6 828c-4.8-4.8-4.8-12.8 0-17.6l28-28c4.8-4.8 12.8-4.8 17.6 0 4.8 4.8 4.8 12.8 0 17.6l-28 28c-4.8 4.8-12.8 4.8-17.6 0zM888.8 516c0-6.4 5.6-12 12-12h39.2c6.4 0 12 5.6 12 12s-5.6 12-12 12h-39.2c-7.2 0-12-5.6-12-12zM239.2 256c4.8-4.8 4.8-12.8 0-17.6l-28-28c-4.8-4.8-12.8-4.8-17.6 0-4.8 4.8-4.8 12.8 0 17.6l28 28c4.8 4.8 12.8 4.8 17.6 0zM816 833.6c4.8-4.8 4.8-12.8 0-17.6l-28-28c-4-4-12-4-16.8 0-4.8 4.8-4.8 12.8 0 17.6l28 28c4.8 4.8 12 4.8 16.8 0zM135.2 516c0-6.4-5.6-12-12-12h-39.2c-6.4 0-12 5.6-12 12s5.6 12 12 12h39.2c7.2 0 12-5.6 12-12z" fill="#FFCE54" p-id="2029"></path></svg>