<?xml version="1.0" standalone="no"?><!DOCTYPE svg PUBLIC "-//W3C//DTD SVG 1.1//EN" "http://www.w3.org/Graphics/SVG/1.1/DTD/svg11.dtd"><svg t="1660012133135" class="icon" viewBox="0 0 1024 1024" version="1.1" xmlns="http://www.w3.org/2000/svg" p-id="4883" xmlns:xlink="http://www.w3.org/1999/xlink" width="200" height="200"><defs><style type="text/css">@font-face { font-family: element-icons; src: url("chrome-extension://moombeodfomdpjnpocobemoiaemednkg/fonts/element-icons.woff") format("woff"), url("chrome-extension://moombeodfomdpjnpocobemoiaemednkg/fonts/element-icons.ttf ") format("truetype"); }
@font-face { font-family: feedback-iconfont; src: url("//at.alicdn.com/t/font_1031158_u69w8yhxdu.woff2?t=1630033759944") format("woff2"), url("//at.alicdn.com/t/font_1031158_u69w8yhxdu.woff?t=1630033759944") format("woff"), url("//at.alicdn.com/t/font_1031158_u69w8yhxdu.ttf?t=1630033759944") format("truetype"); }
</style></defs><path d="M908.8 220.8h-800c-21.6 0-40-17.6-40-40 0-21.6 17.6-40 40-40h800c22.4 0 40 17.6 40 40s-18.4 40-40 40zM908.8 340h-800c-21.6 0-40-17.6-40-40s17.6-40 40-40h800c22.4 0 40 17.6 40 40s-18.4 40-40 40zM908.8 459.2h-800c-21.6 0-40-18.4-40-40s17.6-40 40-40h800c22.4 0 40 17.6 40 40s-18.4 40-40 40z" fill="#86C3E1" p-id="4884"></path><path d="M109.6 579.2m-40 0a40 40 0 1 0 80 0 40 40 0 1 0-80 0Z" fill="#86C3E1" p-id="4885"></path><path d="M242.4 712.8m-40 0a40 40 0 1 0 80 0 40 40 0 1 0-80 0Z" fill="#86C3E1" p-id="4886"></path><path d="M108.8 845.6m-40 0a40 40 0 1 0 80 0 40 40 0 1 0-80 0Z" fill="#86C3E1" p-id="4887"></path><path d="M375.2 579.2m-40 0a40 40 0 1 0 80 0 40 40 0 1 0-80 0Z" fill="#86C3E1" p-id="4888"></path><path d="M508.8 712.8m-40 0a40 40 0 1 0 80 0 40 40 0 1 0-80 0Z" fill="#86C3E1" p-id="4889"></path><path d="M375.2 845.6m-40 0a40 40 0 1 0 80 0 40 40 0 1 0-80 0Z" fill="#86C3E1" p-id="4890"></path><path d="M641.6 579.2m-40 0a40 40 0 1 0 80 0 40 40 0 1 0-80 0Z" fill="#86C3E1" p-id="4891"></path><path d="M908 579.2m-40 0a40 40 0 1 0 80 0 40 40 0 1 0-80 0Z" fill="#86C3E1" p-id="4892"></path><path d="M775.2 712.8m-40 0a40 40 0 1 0 80 0 40 40 0 1 0-80 0Z" fill="#86C3E1" p-id="4893"></path><path d="M642.4 845.6m-40 0a40 40 0 1 0 80 0 40 40 0 1 0-80 0Z" fill="#86C3E1" p-id="4894"></path><path d="M908.8 845.6m-40 0a40 40 0 1 0 80 0 40 40 0 1 0-80 0Z" fill="#86C3E1" p-id="4895"></path></svg>