<?xml version="1.0" standalone="no"?><!DOCTYPE svg PUBLIC "-//W3C//DTD SVG 1.1//EN" "http://www.w3.org/Graphics/SVG/1.1/DTD/svg11.dtd"><svg t="1660012104732" class="icon" viewBox="0 0 1024 1024" version="1.1" xmlns="http://www.w3.org/2000/svg" p-id="3535" xmlns:xlink="http://www.w3.org/1999/xlink" width="200" height="200"><defs><style type="text/css">@font-face { font-family: element-icons; src: url("chrome-extension://moombeodfomdpjnpocobemoiaemednkg/fonts/element-icons.woff") format("woff"), url("chrome-extension://moombeodfomdpjnpocobemoiaemednkg/fonts/element-icons.ttf ") format("truetype"); }
@font-face { font-family: feedback-iconfont; src: url("//at.alicdn.com/t/font_1031158_u69w8yhxdu.woff2?t=1630033759944") format("woff2"), url("//at.alicdn.com/t/font_1031158_u69w8yhxdu.woff?t=1630033759944") format("woff"), url("//at.alicdn.com/t/font_1031158_u69w8yhxdu.ttf?t=1630033759944") format("truetype"); }
</style></defs><path d="M371.2 470.4m-301.6 0a301.6 301.6 0 1 0 603.2 0 301.6 301.6 0 1 0-603.2 0Z" fill="#D8EFFC" p-id="3536"></path><path d="M723.2 545.6m-226.4 0a226.4 226.4 0 1 0 452.8 0 226.4 226.4 0 1 0-452.8 0Z" fill="#D8EFFC" p-id="3537"></path><path d="M700.8 772H393.6c-24.8 0-48-20-48-48v-4.8c0-24.8 20-48 48-48h306.4c24.8 0 48 20 48 48v4.8c0.8 28-20 48-47.2 48z" fill="#D8EFFC" p-id="3538"></path><path d="M387.2 856.8c-15.2 0-28.8-12.8-28.8-28.8-4.8 2.4-9.6 4-13.6 4-10.4 0-20-5.6-24.8-14.4-8-13.6-3.2-31.2 10.4-39.2-7.2-4-11.2-10.4-12.8-17.6-2.4-8-0.8-15.2 3.2-21.6 5.6-8.8 14.4-14.4 24.8-14.4 4.8 0 10.4 1.6 13.6 4 0-15.2 12.8-28.8 28.8-28.8s28.8 12.8 28.8 28.8c4.8-2.4 9.6-4 13.6-4 10.4 0 20 5.6 24.8 14.4 8 13.6 3.2 31.2-10.4 39.2 13.6 8 18.4 25.6 10.4 39.2-5.6 8.8-14.4 14.4-24.8 14.4-4.8 0-10.4-1.6-13.6-4-0.8 16-13.6 28.8-29.6 28.8z" fill="#128CC6" p-id="3539"></path><path d="M387.2 712.8c9.6 0 16 8 16 16v20.8l18.4-10.4c2.4-1.6 5.6-2.4 8.8-2.4 5.6 0 11.2 3.2 14.4 8.8 4.8 8 1.6 17.6-6.4 22.4l-18.4 10.4 18.4 10.4c8 4.8 10.4 14.4 6.4 22.4-3.2 5.6-8.8 8.8-14.4 8.8-3.2 0-5.6-0.8-8.8-2.4l-18.4-10.4v20.8c0 9.6-8 16-16 16-9.6 0-16-8-16-16v-20.8l-18.4 10.4c-2.4 1.6-5.6 2.4-8.8 2.4-5.6 0-11.2-3.2-14.4-8.8-4.8-8-1.6-17.6 6.4-22.4l18.4-10.4-17.6-10.4c-8-4.8-10.4-14.4-6.4-22.4 3.2-5.6 8.8-8.8 14.4-8.8 3.2 0 5.6 0.8 8.8 2.4l18.4 10.4v-20.8c-0.8-8 7.2-16 15.2-16m0-24c-16.8 0-31.2 10.4-37.6 25.6H344c-14.4 0-28 8-35.2 20-5.6 9.6-7.2 20-4 31.2 1.6 5.6 4 10.4 7.2 13.6-10.4 12-11.2 31.2-3.2 45.6 7.2 12 20.8 20 35.2 20h5.6c6.4 14.4 20.8 25.6 37.6 25.6s31.2-10.4 37.6-25.6h5.6c14.4 0 28-8 35.2-20 5.6-9.6 7.2-20 4-31.2-1.6-5.6-4-10.4-7.2-13.6 3.2-4 5.6-9.6 7.2-13.6 3.2-10.4 1.6-21.6-4-31.2-7.2-12-20.8-20-35.2-20h-5.6c-5.6-16-20.8-26.4-37.6-26.4z" fill="#FFFFFF" p-id="3540"></path><path d="M631.2 856.8c-15.2 0-28.8-12.8-28.8-28.8-4.8 2.4-9.6 4-13.6 4-10.4 0-20-5.6-24.8-14.4-8-13.6-3.2-31.2 10.4-39.2-7.2-4-11.2-10.4-12.8-17.6-2.4-8-0.8-15.2 3.2-21.6 5.6-8.8 14.4-14.4 24.8-14.4 4.8 0 10.4 1.6 13.6 4 0-15.2 12.8-28.8 28.8-28.8 15.2 0 28.8 12.8 28.8 28.8 4.8-2.4 9.6-4 13.6-4 10.4 0 20 5.6 24.8 14.4 8 13.6 3.2 31.2-10.4 39.2 13.6 8 18.4 25.6 10.4 39.2-5.6 8.8-14.4 14.4-24.8 14.4-4.8 0-10.4-1.6-13.6-4-0.8 16-13.6 28.8-29.6 28.8z" fill="#128CC6" p-id="3541"></path><path d="M631.2 712.8c9.6 0 16 8 16 16v20.8l18.4-10.4c2.4-1.6 5.6-2.4 8.8-2.4 5.6 0 11.2 3.2 14.4 8.8 4.8 8 1.6 17.6-6.4 22.4L664 778.4l18.4 10.4c8 4.8 10.4 14.4 6.4 22.4-3.2 5.6-8.8 8.8-14.4 8.8-3.2 0-5.6-0.8-8.8-2.4l-18.4-10.4v20.8c0 9.6-8 16-16 16-9.6 0-16-8-16-16v-20.8l-18.4 10.4c-2.4 1.6-5.6 2.4-8.8 2.4-5.6 0-11.2-3.2-14.4-8.8-4.8-8-1.6-17.6 6.4-22.4l18.4-10.4-18.4-10.4c-8-4.8-10.4-14.4-6.4-22.4 3.2-5.6 8.8-8.8 14.4-8.8 3.2 0 5.6 0.8 8.8 2.4l18.4 10.4v-20.8c-0.8-8 7.2-16 16-16m0-24c-16.8 0-31.2 10.4-37.6 25.6h-5.6c-14.4 0-28 8-35.2 20-5.6 9.6-7.2 20-4 31.2 1.6 5.6 4 10.4 7.2 13.6-10.4 12-11.2 31.2-3.2 45.6 7.2 12 20.8 20 35.2 20h5.6c6.4 14.4 20.8 25.6 37.6 25.6s31.2-10.4 37.6-25.6h5.6c14.4 0 28-8 35.2-20 5.6-9.6 7.2-20 4-31.2-1.6-5.6-4-10.4-7.2-13.6 3.2-4 5.6-9.6 7.2-13.6 3.2-10.4 1.6-21.6-4-31.2-7.2-12-20.8-20-35.2-20h-5.6c-6.4-16-20.8-26.4-37.6-26.4z" fill="#FFFFFF" p-id="3542"></path></svg>